<?xml version="1.0" standalone="no"?><!DOCTYPE svg PUBLIC "-//W3C//DTD SVG 1.1//EN" "http://www.w3.org/Graphics/SVG/1.1/DTD/svg11.dtd"><svg class="icon" width="200px" height="200.00px" viewBox="0 0 1024 1024" version="1.1" xmlns="http://www.w3.org/2000/svg"><path d="M334.981 897.3c0 5.522-4.477 10-10 10h-21.574c-5.523 0-10-4.478-10-10v-13.639c0-5.523 4.477-10 10-10h21.574c5.523 0 10 4.477 10 10V897.3zM732.612 897.3c0 5.522-4.478 10-10 10h-21.574c-5.523 0-10-4.478-10-10v-13.639c0-5.523 4.477-10 10-10h21.574c5.522 0 10 4.477 10 10V897.3z" fill="#C4442D" /><path d="M788 438.319v369.064c0 20.974-7.213 41.089-20.053 55.923-12.838 14.83-30.248 23.165-65.404 23.165h-410.75c-1.156 0-18.568-8.335-31.406-23.165-12.84-14.834-20.051-34.949-20.051-55.923V438.319H788z" fill="#24352C" /><path d="M786.459 383.989H238.795V187.458c0-15.637 7.212-30.633 20.052-41.688 12.837-11.058 30.249-17.27 48.405-17.27h410.75c18.156 0 35.567 6.211 48.404 17.27 12.841 11.056 20.053 26.051 20.053 41.688v196.531zM786.459 424.319v369.064c0 20.974-7.212 41.089-20.053 55.923-12.837 14.83-30.248 23.165-48.404 23.165h-410.75c-18.156 0-35.568-8.335-48.405-23.165-12.84-14.834-20.052-34.949-20.052-55.923V424.319h547.664z" fill="#81C7B3" /><path d="M352.163 214.841c-8.486 0-16.628 2.751-22.626 7.641-6.004 4.897-9.371 11.53-9.371 18.451v52.187c0 14.415 14.326 26.096 31.997 26.096 17.672 0 32.003-11.682 32.003-26.096v-52.187c0.001-14.41-14.331-26.092-32.003-26.092z" fill="#E6872B" /><path d="M352.163 503.775c-8.486 0-16.628 2.75-22.626 7.641-6.004 4.896-9.371 11.535-9.371 18.453V634.24c0 14.414 14.326 26.096 31.997 26.096 17.672 0 32.003-11.682 32.003-26.096V529.869c0-6.918-3.373-13.557-9.377-18.453-5.998-4.891-14.139-7.641-22.626-7.641z" fill="#C4442D" /><path d="M767.945 145.059c-12.837-11.058-30.248-17.27-48.404-17.27H512v255.489h275.998V186.747c0-15.637-7.212-30.633-20.053-41.688zM513 424.319v448.152h206.541c18.156 0 35.567-8.335 48.404-23.165 12.841-14.834 20.053-34.949 20.053-55.923V424.319H513z" fill="#69A191" /></svg>